HIERARCHY
ROOT Hips
{
    OFFSET 0.000000 0.000000 0.000000
    CHANNELS 6 Xposition Yposition Zposition Zrotation Xrotation Yrotation
    JOINT Spine
    {
        OFFSET 0.000001 7.292995 0.000000
        CHANNELS 3 Zrotation Xrotation Yrotation
        JOINT Spine1
        {
            OFFSET -0.000000 20.255388 0.000001
            CHANNELS 3 Zrotation Xrotation Yrotation
            JOINT Neck
            {
                OFFSET 0.000001 20.786594 0.000000
                CHANNELS 3 Zrotation Xrotation Yrotation
                JOINT Head
                {
                    OFFSET 0.000003 12.530788 1.776080
                    CHANNELS 3 Zrotation Xrotation Yrotation
                    End Site
                    {
                        OFFSET 0.000000 17.760757 0.000000
                    }
                }
            }
            JOINT LeftShoulder
            {
                OFFSET 3.550532 15.465697 -0.908801
                CHANNELS 3 Zrotation Xrotation Yrotation
                JOINT LeftArm
                {
                    OFFSET 12.513301 -0.000005 0.000001
                    CHANNELS 3 Zrotation Xrotation Yrotation
                    JOINT LeftForeArm
                    {
                        OFFSET 24.225992 0.000005 0.000000
                        CHANNELS 3 Zrotation Xrotation Yrotation
                        JOINT LeftHand
                        {
                            OFFSET 20.711395 -0.000004 0.000000
                            CHANNELS 3 Zrotation Xrotation Yrotation
                            JOINT LeftHandThumb1
                            {
                                OFFSET 2.121964 -2.411326 3.375861
                                CHANNELS 3 Zrotation Xrotation Yrotation
                                JOINT LeftHandThumb2
                                {
                                    OFFSET 2.803212 -0.000001 -0.000002
                                    CHANNELS 3 Zrotation Xrotation Yrotation
                                    JOINT LeftHandThumb3
                                    {
                                        OFFSET 2.395929 0.000000 0.000000
                                        CHANNELS 3 Zrotation Xrotation Yrotation
                                        End Site
                                        {
                                            OFFSET 2.127676 0.000000 0.000000
                                        }
                                    }
                                }
                            }
                            JOINT LeftHandIndex1
                            {
                                OFFSET 8.680776 0.000004 3.375861
                                CHANNELS 3 Zrotation Xrotation Yrotation
                                JOINT LeftHandIndex2
                                {
                                    OFFSET 4.218180 -0.000002 0.000001
                                    CHANNELS 3 Zrotation Xrotation Yrotation
                                    JOINT LeftHandIndex3
                                    {
                                        OFFSET 2.109090 0.000001 -0.000000
                                        CHANNELS 3 Zrotation Xrotation Yrotation
                                        End Site
                                        {
                                            OFFSET 1.872952 0.000000 0.000000
                                        }
                                    }
                                }
                            }
                            JOINT LeftHandMiddle1
                            {
                                OFFSET 8.680775 0.000001 1.118862
                                CHANNELS 3 Zrotation Xrotation Yrotation
                                JOINT LeftHandMiddle2
                                {
                                    OFFSET 4.640000 0.000002 -0.000000
                                    CHANNELS 3 Zrotation Xrotation Yrotation
                                    JOINT LeftHandMiddle3
                                    {
                                        OFFSET 2.530906 0.000005 0.000000
                                        CHANNELS 3 Zrotation Xrotation Yrotation
                                        End Site
                                        {
                                            OFFSET 2.247544 0.000000 0.000000
                                        }
                                    }
                                }
                            }
                            JOINT LeftHandRing1
                            {
                                OFFSET 8.198514 -0.000004 -1.118859
                                CHANNELS 3 Zrotation Xrotation Yrotation
                                JOINT LeftHandRing2
                                {
                                    OFFSET 4.218182 -0.000003 -0.000001
                                    CHANNELS 3 Zrotation Xrotation Yrotation
                                    JOINT LeftHandRing3
                                    {
                                        OFFSET 2.109086 0.000004 0.000001
                                        CHANNELS 3 Zrotation Xrotation Yrotation
                                        End Site
                                        {
                                            OFFSET 1.872952 0.000000 0.000000
                                        }
                                    }
                                }
                            }
                            JOINT LeftHandPinky1
                            {
                                OFFSET 7.716242 0.000005 -3.375859
                                CHANNELS 3 Zrotation Xrotation Yrotation
                                JOINT LeftHandPinky2
                                {
                                    OFFSET 3.374535 0.000004 0.000002
                                    CHANNELS 3 Zrotation Xrotation Yrotation
                                    JOINT LeftHandPinky3
                                    {
                                        OFFSET 1.687275 0.000002 -0.000001
                                        CHANNELS 3 Zrotation Xrotation Yrotation
                                        End Site
                                        {
                                            OFFSET 1.498360 0.000000 0.000000
                                        }
                                    }
                                }
                            }
                        }
                    }
                }
            }
            JOINT RightShoulder
            {
                OFFSET -3.550531 15.465694 -0.908802
                CHANNELS 3 Zrotation Xrotation Yrotation
                JOINT RightArm
                {
                    OFFSET -12.513298 -0.000004 0.000001
                    CHANNELS 3 Zrotation Xrotation Yrotation
                    JOINT RightForeArm
                    {
                        OFFSET -24.225996 -0.000002 -0.000000
                        CHANNELS 3 Zrotation Xrotation Yrotation
                        JOINT RightHand
                        {
                            OFFSET -20.711401 0.000005 0.000001
                            CHANNELS 3 Zrotation Xrotation Yrotation
                            JOINT RightHandThumb1
                            {
                                OFFSET -2.121970 -2.411334 3.375861
                                CHANNELS 3 Zrotation Xrotation Yrotation
                                JOINT RightHandThumb2
                                {
                                    OFFSET -2.803210 0.000003 -0.000004
                                    CHANNELS 3 Zrotation Xrotation Yrotation
                                    JOINT RightHandThumb3
                                    {
                                        OFFSET -2.395930 -0.000001 0.000002
                                        CHANNELS 3 Zrotation Xrotation Yrotation
                                        End Site
                                        {
                                            OFFSET -2.127676 0.000000 0.000000
                                        }
                                    }
                                }
                            }
                            JOINT RightHandIndex1
                            {
                                OFFSET -8.680779 0.000001 3.375860
                                CHANNELS 3 Zrotation Xrotation Yrotation
                                JOINT RightHandIndex2
                                {
                                    OFFSET -4.218180 0.000000 -0.000000
                                    CHANNELS 3 Zrotation Xrotation Yrotation
                                    JOINT RightHandIndex3
                                    {
                                        OFFSET -2.109090 0.000001 -0.000000
                                        CHANNELS 3 Zrotation Xrotation Yrotation
                                        End Site
                                        {
                                            OFFSET -1.872952 0.000000 0.000000
                                        }
                                    }
                                }
                            }
                            JOINT RightHandMiddle1
                            {
                                OFFSET -8.680780 0.000001 1.118860
                                CHANNELS 3 Zrotation Xrotation Yrotation
                                JOINT RightHandMiddle2
                                {
                                    OFFSET -4.640000 -0.000002 0.000001
                                    CHANNELS 3 Zrotation Xrotation Yrotation
                                    JOINT RightHandMiddle3
                                    {
                                        OFFSET -2.530910 0.000001 -0.000000
                                        CHANNELS 3 Zrotation Xrotation Yrotation
                                        End Site
                                        {
                                            OFFSET -2.247544 0.000000 0.000000
                                        }
                                    }
                                }
                            }
                            JOINT RightHandRing1
                            {
                                OFFSET -8.198519 0.000005 -1.118860
                                CHANNELS 3 Zrotation Xrotation Yrotation
                                JOINT RightHandRing2
                                {
                                    OFFSET -4.218180 -0.000006 0.000000
                                    CHANNELS 3 Zrotation Xrotation Yrotation
                                    JOINT RightHandRing3
                                    {
                                        OFFSET -2.109090 0.000001 -0.000000
                                        CHANNELS 3 Zrotation Xrotation Yrotation
                                        End Site
                                        {
                                            OFFSET -1.872952 0.000000 0.000000
                                        }
                                    }
                                }
                            }
                            JOINT RightHandPinky1
                            {
                                OFFSET -7.716248 -0.000002 -3.375859
                                CHANNELS 3 Zrotation Xrotation Yrotation
                                JOINT RightHandPinky2
                                {
                                    OFFSET -3.374540 0.000000 0.000000
                                    CHANNELS 3 Zrotation Xrotation Yrotation
                                    JOINT RightHandPinky3
                                    {
                                        OFFSET -1.687270 0.000004 0.000001
                                        CHANNELS 3 Zrotation Xrotation Yrotation
                                        End Site
                                        {
                                            OFFSET -1.498360 0.000000 0.000000
                                        }
                                    }
                                }
                            }
                        }
                    }
                }
            }
        }
    }
    JOINT LeftUpLeg
    {
        OFFSET 8.880376 -0.000000 -0.000000
        CHANNELS 3 Zrotation Xrotation Yrotation
        JOINT LeftLeg
        {
            OFFSET -0.000001 -40.387405 -0.000001
            CHANNELS 3 Zrotation Xrotation Yrotation
            JOINT LeftFoot
            {
                OFFSET -0.000001 -36.911297 -0.000001
                CHANNELS 3 Zrotation Xrotation Yrotation
                JOINT LeftToeBase
                {
                    OFFSET -0.000002 -5.772240 13.320604
                    CHANNELS 3 Zrotation Xrotation Yrotation
                    End Site
                    {
                        OFFSET 0.000000 0.000000 3.552151
                    }
                }
            }
        }
    }
    JOINT RightUpLeg
    {
        OFFSET -8.880376 0.000000 0.000000
        CHANNELS 3 Zrotation Xrotation Yrotation
        JOINT RightLeg
        {
            OFFSET -0.000001 -40.387390 0.000000
            CHANNELS 3 Zrotation Xrotation Yrotation
            JOINT RightFoot
            {
                OFFSET 0.000002 -36.911297 -0.000001
                CHANNELS 3 Zrotation Xrotation Yrotation
                JOINT RightToeBase
                {
                    OFFSET 0.000001 -5.772238 13.320600
                    CHANNELS 3 Zrotation Xrotation Yrotation
                    End Site
                    {
                        OFFSET 0.000000 0.000000 3.552151
                    }
                }
            }
        }
    }
}
MOTION
Frames: 5
Frame Time: 0.013889
81.010696    83.940582    10.178339    -1.122617    10.160677    2.897707    0.022083    -23.679319    0.054985    0.373004    15.521040    -0.051294    -1.284399    -7.449108    -2.304125    1.586519    5.546376    -2.299356    -3.566560    6.184308    -0.694731    -65.011314    40.325970    -11.657614    -9.301724    -26.301414    -20.286583    -3.156560    -2.112142    6.597052    30.056927    35.300255    -42.027855    -13.095687    -0.511923    23.312168    -0.000000    0.000000    -0.000000    -5.828975    17.912849    -1.944672    -5.545502    -0.000000    0.000003    -5.545518    0.000000    -0.000004    -5.863028    8.953691    -0.955937    -5.791327    -0.000000    0.000002    -5.791333    0.000000    -0.000003    -5.987435    -8.951705    -0.865648    -5.914228    0.000001    0.000001    -5.914249    0.000000    -0.000000    -6.345369    -17.896736    -1.818531    -6.037144    0.000000    -0.000000    -6.037164    0.000000    0.000000    7.561988    6.337830    2.904045    63.379929    32.824993    9.540649    8.631774    -29.332182    17.217321    -6.452528    -6.931697    -10.599519    -39.891186    27.974245    44.097469    12.643339    -0.316984    -23.315435    -0.000000    0.000000    -0.000000    10.545419    17.715097    1.765580    10.040054    -0.000001    0.000000    10.040062    0.000001    0.000002    11.435184    8.824190    0.726534    11.298053    0.000001    0.000000    11.298038    -0.000001    0.000001    12.071373    -8.804149    -1.394008    11.927043    -0.000000    0.000000    11.927043    0.000000    -0.000000    13.180160    -17.555285    -2.497161    12.556032    0.000000    -0.000000    12.556032    0.000001    0.000002    -0.776556    -8.823257    4.808873    -0.000000    5.337175    0.000000    -0.864410    -3.554967    -10.406718    -0.000000    2.933512    -0.000000    0.268252    -5.882930    -10.483634    -0.000000    5.398870    -0.000001    6.493950    -6.101913    6.346101    0.000000    4.966083    -0.000001    
81.049690    83.937851    10.206926    -1.132735    10.079286    2.921535    0.035390    -23.603107    0.088387    0.368699    15.523733    -0.020640    -1.201460    -7.391530    -2.307794    1.621006    5.575742    -2.318893    -3.555257    6.180860    -0.645796    -64.935532    40.374294    -11.726449    -9.325873    -26.207726    -20.397787    -3.265837    -2.130131    6.481198    30.060493    35.298286    -42.010616    -13.091230    -0.510003    23.312210    -0.000000    0.000000    -0.000000    -5.810984    17.913380    -2.072465    -5.528374    -0.000002    0.000001    -5.528379    0.000003    0.000003    -5.837374    8.954097    -1.021060    -5.765975    -0.000002    0.000003    -5.765992    0.000004    -0.000002    -5.957620    -8.952183    -0.839140    -5.884776    0.000000    -0.000000    -5.884779    -0.000000    0.000000    -6.310112    -17.897877    -1.763961    -6.003595    -0.000001    -0.000001    -6.003578    0.000000    0.000001    7.583944    6.353290    2.941348    63.304405    32.865856    9.587161    8.648734    -29.409439    17.210819    -6.529096    -7.004765    -10.585988    -39.907597    27.953968    44.125122    12.634349    -0.313116    -23.315489    -0.000000    0.000000    -0.000000    10.571512    17.713680    1.692307    10.064943    0.000002    -0.000000    10.064944    -0.000000    -0.000001    11.463185    8.823331    0.689574    11.325717    -0.000000    -0.000001    11.325722    0.000001    -0.000000    12.100764    -8.803194    -1.336205    11.956112    -0.000000    -0.000001    11.956089    0.000000    0.000001    13.212022    -17.553127    -2.380942    12.586500    -0.000002    0.000000    12.586483    0.000001    -0.000000    -0.795525    -8.849155    4.718652    -0.000000    5.592922    0.000002    -0.749232    -3.659682    -10.323498    0.000001    2.867717    0.000001    0.239336    -5.860181    -10.619136    -0.000000    5.571200    0.000001    6.501575    -6.164135    6.431880    0.000001    4.923797    -0.000000    
81.080139    83.932205    10.226945    -1.146463    10.008943    2.945761    0.045746    -23.531933    0.114576    0.375334    15.528929    0.000728    -1.139506    -7.358863    -2.328701    1.646686    5.579093    -2.351006    -3.540519    6.171131    -0.611362    -64.867958    40.380032    -11.784066    -9.348330    -26.110983    -20.508194    -3.388345    -2.139522    6.384375    30.109257    35.262737    -42.030300    -13.063654    -0.498120    23.312456    -0.000000    0.000000    -0.000000    -5.820029    17.913118    -2.225439    -5.536995    -0.000000    0.000003    -5.536994    -0.000002    -0.000003    -5.830046    8.954211    -1.100073    -5.758767    0.000000    -0.000001    -5.758767    0.000000    -0.000003    -5.942286    -8.952430    -0.825052    -5.869651    -0.000000    -0.000001    -5.869655    -0.000000    -0.000000    -6.285894    -17.898661    -1.733117    -5.980540    -0.000001    -0.000000    -5.980540    0.000000    0.000000    7.601807    6.350332    2.961542    63.250843    32.865627    9.613886    8.709760    -29.583029    17.239704    -6.613982    -7.149535    -10.598049    -39.910011    27.948944    44.135780    12.632561    -0.312342    -23.315500    -0.000000    0.000000    -0.000000    10.573394    17.713581    1.578510    10.066758    -0.000001    0.000000    10.066747    0.000000    -0.000000    11.468454    8.823166    0.632151    11.330940    -0.000001    -0.000001    11.330951    -0.000001    0.000001    12.107780    -8.802970    -1.263903    11.963031    -0.000001    -0.000001    11.963037    -0.000001    -0.000001    13.221048    -17.552523    -2.235759    12.595135    -0.000001    -0.000002    12.595119    0.000000    -0.000000    -0.805935    -8.874255    4.661588    0.000000    5.814222    -0.000001    -0.661719    -3.761961    -10.266420    -0.000001    2.816772    -0.000000    0.220322    -5.843613    -10.685002    0.000000    5.716038    -0.000001    6.493559    -6.221473    6.487721    0.000001    4.873352    -0.000000    
81.112663    83.926537    10.244612    -1.171846    9.939093    2.981595    0.058445    -23.460026    0.146807    0.369615    15.531760    0.030783    -1.032531    -7.331073    -2.362210    1.674026    5.573020    -2.401344    -3.526942    6.137963    -0.595755    -64.774963    40.307350    -11.844800    -9.404260    -26.073332    -20.647980    -3.557622    -2.215022    6.260106    30.281450    35.134075    -42.169483    -12.967519    -0.456697    23.313255    -0.000000    0.000000    -0.000000    -5.916338    17.910221    -2.338103    -5.628688    0.000002    -0.000002    -5.628673    -0.000002    0.000002    -5.865365    8.953655    -1.165720    -5.793641    0.000003    -0.000002    -5.793646    -0.000000    0.000001    -5.948856    -8.952326    -0.816009    -5.876131    -0.000000    -0.000000    -5.876129    0.000000    -0.000000    -6.262880    -17.899405    -1.705910    -5.958609    0.000000    -0.000000    -5.958606    0.000001    0.000001    7.624990    6.353862    2.995968    63.197891    32.876774    9.642917    8.762094    -29.781111    17.240019    -6.850798    -7.276075    -10.672030    -39.872589    27.968893    44.157188    12.645729    -0.318016    -23.315420    -0.000000    0.000000    -0.000000    10.531695    17.715837    1.406981    10.026954    0.000002    0.000001    10.026944    0.000001    0.000001    11.435128    8.824192    0.545154    11.297993    0.000002    0.000001    11.297985    -0.000002    0.000000    12.077926    -8.803937    -1.170199    11.933497    0.000001    0.000000    11.933514    -0.000001    0.000001    13.193757    -17.554363    -2.047448    12.569023    -0.000001    -0.000001    12.569021    -0.000000    0.000003    -0.806134    -8.902411    4.598622    0.000000    6.038130    -0.000000    -0.576882    -3.877267    -10.217661    0.000000    2.776302    0.000001    0.212055    -5.836772    -10.776589    0.000000    5.889962    -0.000001    6.468204    -6.307045    6.512707    0.000001    4.809218    -0.000000    
81.153877    83.922455    10.273968    -1.207554    9.864105    3.059292    0.071705    -23.388010    0.180637    0.361373    15.544192    0.062892    -0.869916    -7.307953    -2.399058    1.678361    5.579029    -2.460037    -3.525773    6.131707    -0.611213    -64.635277    40.199165    -11.891159    -9.439383    -25.931662    -20.816139    -3.867862    -2.164148    5.995667    30.466576    34.992199    -42.372700    -12.868903    -0.414197    23.314001    -0.000000    0.000000    -0.000000    -6.204435    17.901266    -2.395459    -5.902984    -0.000002    -0.000001    -5.902975    -0.000000    0.000002    -5.990995    8.951647    -1.219138    -5.917760    0.000000    -0.000002    -5.917751    0.000003    0.000002    -5.998462    -8.951529    -0.802300    -5.925150    0.000000    -0.000000    -5.925150    0.000000    -0.000000    -6.235492    -17.900280    -1.654638    -5.932536    -0.000000    -0.000000    -5.932532    0.000000    0.000000    7.674181    6.346037    3.054116    63.125175    32.880867    9.710420    8.851317    -30.139183    17.231123    -7.542137    -7.410241    -10.882336    -39.817394    27.977257    44.257122    12.659565    -0.323971    -23.315351    -0.000000    0.000000    -0.000000    10.294172    17.728491    1.149360    9.800362    0.000000    0.000002    9.800366    -0.000003    -0.000001    11.285520    8.828752    0.403149    11.150083    0.000000    -0.000000    11.150085    -0.000002    0.000001    11.968112    -8.807473    -1.013404    11.824940    -0.000001    0.000000    11.824944    -0.000000    -0.000000    13.121313    -17.559233    -1.722086    12.499807    -0.000000    -0.000001    12.499793    0.000000    -0.000001    -0.809903    -8.931045    4.483826    -0.000001    6.277357    0.000001    -0.462111    -4.004416    -10.170232    -0.000000    2.732958    -0.000000    0.197806    -5.840225    -10.883718    0.000000    6.111324    0.000001    6.422173    -6.403566    6.546545    0.000002    4.743306    -0.000000    
